/* XPM */
static char *_308f79d30a34713877306c4893642b4ErwAiqnQAee6A70s[] = {
/* columns rows colors chars-per-pixel */
"128 128 4 1 ",
"  c #2E101E",
". c #17040C",
"X c #7B6770",
"o c #321723",
/* pixels */
"          .............                                   XX  XXXXXXXXXXXXX  ..............                                     ",
"          .............                                   XX  XXXXXXXXXXXXX  ..............                                     ",
"................................................................................................................................",
"................................................................................................................................",
"...............................................................................  ...............................................",
"...............................................................................  ...............................................",
"..    XXXXXXXXXXXXXXXXo........  XXXXXXXXXXXXXXXXXXXXXXXXXXX  ...........    XX    ..  XXXXXXXX.XXXXXXXXXXXXXXXX...........XX   ",
"..    XXXXXXXXXXXXXXXXo........  XXXXXXXXXXXXXXXXXXXXXXXXXXX  ...........    XX    ..  XXXXXXXX.XXXXXXXXXXXXXXXX...........XX   ",
"..    XXXXXXXXXXXXXXXXo........  XXXXXXXXXXXXXXXXXXXXXXXXXXX  ...........    XX    ..  XXXXXXXX.XXXXXXXXXXXXXXXX...........XX   ",
"  ooooXXXX        oo                           ooooo  XXXXXXXX  .......XXXXXXXXooooooooooooooXXXXXXXXXXXXXXXXXoooo.......  XXXXo",
"  ooooXXXX        oo                           ooooo  XXXXXXXX  .......XXXXXXXXooooooooooooooXXXXXXXXXXXXXXXXXoooo.......  XXXXo",
"XXooXXXX  oo          ooooooooooo  oooo  oooo   oooo    XX  XXoo  ....XXXXXXXXXooooooooooooXXoooooooXXXXooooooooooXXXX...  XXooX",
"XXooXXXX  oo          ooooooooooo  oooo  oooo   oooo    XX  XXoo  ....XXXXXXXXXooooooooooooXXoooooooXXXXooooooooooXXXX...  XXooX",
"XXoooooo    oooooooo  ooooooooooooooooo  oooooooooooXX  ooooXXoo  ....   XXXXXXXXoooooooooooooooooooooooooooooooXXXXXX...oooo  X",
"XXoooooo    oooooooo  ooooooooooooooooo  oooooooooooXX  ooooXXoo  ....   XXXXXXXXoooooooooooooooooooooooooooooooXXXXXX...oooo  X",
"oooooooooo      ooooooooooooooooooooooooooooooooooXXXX  oooooooo  ....o    XXXXXXooooooooooooooXoooooooooooooooooo  XX...XXoo  X",
"oooooooooo      ooooooooooooooooooooooooooooooooooXXXX  oooooooo  ....o    XXXXXXooooooooooooooXoooooooooooooooooo  XX...XXoo  X",
"ooooooooooXXXX  oooooooooooXXooooooooooooooooooooooooooooooooooo  ....oooooooXXooooooooooooooooooooooooooooooooooo    ...oo  ooo",
"ooooooooooXXXX  oooooooooooXXooooooooooooooooooooooooooooooooooo  ....oooooooXXooooooooooooooooooooooooooooooooooo    ...oo  ooo",
"ooooooooooooXXoooooooooooooooooooooooooooooooooooooooooooooo    ......   ooooooooooooooooooooooooooooooooooooooooo    ...oo  XXo",
"ooooooooooooXXoooooooooooooooooooooooooooooooooooooooooooooo    ......   ooooooooooooooooooooooooooooooooooooooooo    ...oo  XXo",
"ooooooooooooXXoooooooooooooooooooooooooooooooooooooooooooooo    ......   ooooooooooooooooooooooooooooooooooooooooo    ...oo  XXo",
"oooooooooooooooooooooooooooooooooooooooooooooooooooooooooooo  ........     ooooooooooooooooooooooooooooooooooooooo    ...    oo ",
"oooooooooooooooooooooooooooooooooooooooooooooooooooooooooooo  ........     ooooooooooooooooooooooooooooooooooooooo    ...    oo ",
"  ooooooooooooooooooooooooooooooooooooooooo  ooooooooooo        ......     ooooooooooooooooooooooooooooooooooooooo    ...oooooo ",
"  ooooooooooooooooooooooooooooooooooooooooo  ooooooooooo        ......     ooooooooooooooooooooooooooooooooooooooo    ...oooooo ",
"    oooooooooooooooooooooooooooooooooooooXXooooooooooo            .... ooooooooooooooooooooooXXooooooooooooooooooo  .....oooo   ",
"    oooooooooooooooooooooooooooooooooooooXXooooooooooo            .... ooooooooooooooooooooooXXooooooooooooooooooo  .....oooo   ",
"..oooooooooooooooooooooooooooooooooooooooooooooooooooooooooooo  .......ooooooooooooooooooooXXXXooooooooooooooooooooo  ...  XXooo",
"..oooooooooooooooooooooooooooooooooooooooooooooooooooooooooooo  .......ooooooooooooooooooooXXXXooooooooooooooooooooo  ...  XXooo",
"  oooooooooo  ooooooooooooooooooooooo  ooooooooooooooooooooooo    .....ooooooooooooooooooooooooooooooooooooooooooooo  ...  XXooo",
"  oooooooooo  ooooooooooooooooooooooo  ooooooooooooooooooooooo    .....ooooooooooooooooooooooooooooooooooooooooooooo  ...  XXooo",
"ooooooooooooXX  ooooooooooooooo    ooXX  ooooooooooooooooooooo    .....ooooooooooooooooooooooooooooooooooooooooooooo  ...      X",
"ooooooooooooXX  ooooooooooooooo    ooXX  ooooooooooooooooooooo    .....ooooooooooooooooooooooooooooooooooooooooooooo  ...      X",
"  ooooooooooXXXX  oo   ooooooooXX  oooooooooooooXXXXoooooooo      .... oooooooooooooooooooo    ooooooooooooooo  oo    ...  oo  X",
"  ooooooooooXXXX  oo   ooooooooXX  oooooooooooooXXXXoooooooo      .... oooooooooooooooooooo    ooooooooooooooo  oo    ...  oo  X",
"  ooooooooooXXXX  oo   ooooooooXX  oooooooooooooXXXXoooooooo      .... oooooooooooooooooooo    ooooooooooooooo  oo    ...  oo  X",
"    ooooooooooXXXX  XX ooooooooooXX  XX  ooooooooo                ....   oooooooooooooooo       oooooooooooooo        .....     ",
"    ooooooooooXXXX  XX ooooooooooXX  XX  ooooooooo                ....   oooooooooooooooo       oooooooooooooo        .....     ",
"      oo    ooooooXXXX oooooooooooooooooo    ooooooo          ........         oooooooooo         oooooooo          .........  o",
"      oo    ooooooXXXX oooooooooooooooooo    ooooooo          ........         oooooooooo         oooooooo          .........  o",
"..                       ..........             oooo        .............                                         .........     ",
"..                       ..........             oooo        .............                                         .........     ",
"................................................................................................................................",
"................................................................................................................................",
"................................................................................................................................",
"................................................................................................................................",
"XXXX        oo                           oooooo XXXXXXXX  ........XXXXXXXooooooooooooooXXXXXXXXXXXXXXXXXoooo.......... XX  ooooo",
"XXXX        oo                           oooooo XXXXXXXX  ........XXXXXXXooooooooooooooXXXXXXXXXXXXXXXXXoooo.......... XX  ooooo",
"XXXX        oo                           oooooo XXXXXXXX  ........XXXXXXXooooooooooooooXXXXXXXXXXXXXXXXXoooo.......... XX  ooooo",
"XX  oo          ooooooooooo  oooo  oooo    oooo   XX  XXoo  ....XXXXXXXXXooooooooooooXXooooooooXXXooooooooooXXXX....     ooooooo",
"XX  oo          ooooooooooo  oooo  oooo    oooo   XX  XXoo  ....XXXXXXXXXooooooooooooXXooooooooXXXooooooooooXXXX....     ooooooo",
"oo    oooooooo  ooooooooooooooooo  ooooooooooooX  ooooXXoo  ....    XXXXXXXoooooooooooooooooooooooooooooooXXXXXX....   ooooooooo",
"oo    oooooooo  ooooooooooooooooo  ooooooooooooX  ooooXXoo  ....    XXXXXXXoooooooooooooooooooooooooooooooXXXXXX....   ooooooooo",
"oooo      oooooooooooooooooooooooooooooooooooXXX  oooooooo  ....oo    XXXXXooooooooooooooXXooooooooooooooooo  XX....   ooooooooo",
"oooo      oooooooooooooooooooooooooooooooooooXXX  oooooooo  ....oo    XXXXXooooooooooooooXXooooooooooooooooo  XX....   ooooooooo",
"ooooXXXX  ooooooooooooXooooooooooooooooooooooooooooooooooo  ....oooooooXXooooooooooooooooooooooooooooooooooo    ....  oooooooooo",
"ooooXXXX  ooooooooooooXooooooooooooooooooooooooooooooooooo  ....oooooooXXooooooooooooooooooooooooooooooooooo    ....  oooooooooo",
"ooooooXXoooooooooooooooooooooooooooooooooooooooooooooo    ......    oooooooooooooooooooooooooooooooooooooooo    ....oooooooooooo",
"ooooooXXoooooooooooooooooooooooooooooooooooooooooooooo    ......    oooooooooooooooooooooooooooooooooooooooo    ....oooooooooooo",
"oooooooooooooooooooooooooooooooooooooooooooooooooooooo  ........      oooooooooooooooooooooooooooooooooooooo    ....oooooooooooo",
"oooooooooooooooooooooooooooooooooooooooooooooooooooooo  ........      oooooooooooooooooooooooooooooooooooooo    ....oooooooooooo",
"oooooooooooooooooooooooooooooooooooooooooooooooooooooo  ........      oooooooooooooooooooooooooooooooooooooo    ....oooooooooooo",
"ooooooooooooooooooooooooooooooooooooo  ooooooooooo        ......      oooooooooooooooooooooooooooooooooooooo    ....oooooooooooo",
"ooooooooooooooooooooooooooooooooooooo  ooooooooooo        ......      oooooooooooooooooooooooooooooooooooooo    ....oooooooooooo",
"oooooooooooooooooooooooooooooooooooXXooooooooooo            ....  oooooooooooooooooooooXXooooooooooooooooooo  ......oooooXXooooo",
"oooooooooooooooooooooooooooooooooooXXooooooooooo            ....  oooooooooooooooooooooXXooooooooooooooooooo  ......oooooXXooooo",
"oooooooooooooooooooooooooooooooooooooooooooooooooooooooo  ........oooooooooooooooooooXXXXooooooooooooooooooooo  ....oooooooXXooo",
"oooooooooooooooooooooooooooooooooooooooooooooooooooooooo  ........oooooooooooooooooooXXXXooooooooooooooooooooo  ....oooooooXXooo",
"oooooo  ooooooooooooooooooooooo  ooooooooooooooooooooooo    ......oooooooooooooooooooooooooooooooooooooooooooo  ....oooooooooooo",
"oooooo  ooooooooooooooooooooooo  ooooooooooooooooooooooo    ......oooooooooooooooooooooooooooooooooooooooooooo  ....oooooooooooo",
"ooooooXX  ooooooooooooooo    ooXX  ooooooooooooooooooooo    ......oooooooooooooooooooooooooooooooooooooooooooo  ....   ooooooooo",
"ooooooXX  ooooooooooooooo    ooXX  ooooooooooooooooooooo    ......oooooooooooooooooooooooooooooooooooooooooooo  ....   ooooooooo",
"ooooooXXXX  oo    oooooooXX  ooooooooooooooXXXXooooooo      ....  ooooooooooooooooooo    ooooooooooooooo  oo    ....     ooooooo",
"ooooooXXXX  oo    oooooooXX  ooooooooooooooXXXXooooooo      ....  ooooooooooooooooooo    ooooooooooooooo  oo    ....     ooooooo",
"ooooooXXXX  oo    oooooooXX  ooooooooooooooXXXXooooooo      ....  ooooooooooooooooooo    ooooooooooooooo  oo    ....     ooooooo",
"ooooooooXXXX  XX  oooooooooXX  XX  oooooooooo               ....    ooooooooooooooo        ooooooooooooo        ....       oooo ",
"ooooooooXXXX  XX  oooooooooXX  XX  oooooooooo               ....    ooooooooooooooo        ooooooooooooo        ....       oooo ",
"oo    ooooooXXXX  ooooooooooooooooo    oooooooo         ........         oooooooooo          ooooooo          ........       XXX",
"oo    ooooooXXXX  ooooooooooooooooo    oooooooo         ........         oooooooooo          ooooooo          ........       XXX",
"                    .........              oooo       ..............                                        .............    XX ",
"                    .........              oooo       ..............                                        .............    XX ",
"................................................................................................................................",
"................................................................................................................................",
"................................................................................................................................",
"................................................................................................................................",
"................................................................................................................................",
"................................................................................................................................",
"ooooooooooXXXXXX    .. ..........    XXXXXXXXXXXXXXXoo........  XXXXXXXXXXXXXXXXXXXXXXXXXXX  ...............XXXXXXXXXXXXXXXXXXX ",
"ooooooooooXXXXXX    .. ..........    XXXXXXXXXXXXXXXoo........  XXXXXXXXXXXXXXXXXXXXXXXXXXX  ...............XXXXXXXXXXXXXXXXXXX ",
"ooooooooooXXXXXX    .. ..........    XXXXXXXXXXXXXXXoo........  XXXXXXXXXXXXXXXXXXXXXXXXXXX  ...............XXXXXXXXXXXXXXXXXXX ",
"ooooooooooXXXX      XX   ......  ooooXXXX       oo                           oooooo  XXXXXXXX  .............XXXXXXoo  XXXXX     ",
"ooooooooooXXXX      XX   ......  ooooXXXX       oo                           oooooo  XXXXXXXX  .............XXXXXXoo  XXXXX     ",
"ooooooooooooXXXX    XXo  ....ooXXooXXXX  oo         oooooooooooo  oooo oooo    oooo    XX  XXoo ......    XXXXXXXXoooooooXXXXXX ",
"ooooooooooooXXXX    XXo  ....ooXXooXXXX  oo         oooooooooooo  oooo oooo    oooo    XX  XXoo ......    XXXXXXXXoooooooXXXXXX ",
"ooooooooooooooXXXXXX  o  ....  XXoooooo    ooooooo  oooooooooooooooooo ooooooooooooXX  ooooXXoo ......    XXoooooooooooooooooXXX",
"ooooooooooooooXXXXXX  o  ....  XXoooooo    ooooooo  oooooooooooooooooo ooooooooooooXX  ooooXXoo ......    XXoooooooooooooooooXXX",
"ooooooooooooooooXXoooo   ....  oooooooooo      ooooooooooooooooooooooooooooooooooXXXX  oooooooo ....  ooXXooooooooooooooooo    X",
"ooooooooooooooooXXoooo   ....  oooooooooo      ooooooooooooooooooooooooooooooooooXXXX  oooooooo ....  ooXXooooooooooooooooo    X",
"oooooooooooooooooooo     ......ooooooooooXXXX  oooooooooooXXooooooooooooooooooooooooooooooooooo ....  ooooooooooooooooooooo  ooX",
"oooooooooooooooooooo     ......ooooooooooXXXX  oooooooooooXXooooooooooooooooooooooooooooooooooo ....  ooooooooooooooooooooo  ooX",
"ooooooooooooooooooooXXo......  ooooooooooooXXoooooooooooooooooooooooooooooooooooooooooooooo    .....oooooooooooooooooooooooooooo",
"ooooooooooooooooooooXXo......  ooooooooooooXXoooooooooooooooooooooooooooooooooooooooooooooo    .....oooooooooooooooooooooooooooo",
"ooooooooooooooooooooXXo......  ooooooooooooXXoooooooooooooooooooooooooooooooooooooooooooooo    .....oooooooooooooooooooooooooooo",
"ooooooooooooooooooooooo  ....  oooooooooooooooooooooooooooooooooooooooooooooooooooooooooooo  .......    oooooooooooooooooooooooo",
"ooooooooooooooooooooooo  ....  oooooooooooooooooooooooooooooooooooooooooooooooooooooooooooo  .......    oooooooooooooooooooooooo",
"ooooooooooooooXXooooooo  ....    oooooooooooooooooooooooooooooooooooooooo  oooooooooooo        .....  oooooooooooooooooooooooooo",
"ooooooooooooooXXooooooo  ....    oooooooooooooooooooooooooooooooooooooooo  oooooooooooo        .....  oooooooooooooooooooooooooo",
"XXooooooooooooooooooooo  ......    ooooooooooooooooooooooooooooooooooooXXoooooooooooo           ....  oooooooooooooooooooooooooo",
"XXooooooooooooooooooooo  ......    ooooooooooooooooooooooooooooooooooooXXoooooooooooo           ....  oooooooooooooooooooooooooo",
"ooooooooooooooooooooooo  ........oooooooooooooooooooooooooooooooooooooooooooooooooooooooooooo  .....  oooooooooooooooooooooooooo",
"ooooooooooooooooooooooo  ........oooooooooooooooooooooooooooooooooooooooooooooooooooooooooooo  .....  oooooooooooooooooooooooooo",
"ooooooooooooooooooooooo  ......  oooooooooo  ooooooooooooooooooooooo  ooooooooooooooooooooooo   ....oooooooooooooooooooooooooooo",
"ooooooooooooooooooooooo  ......  oooooooooo  ooooooooooooooooooooooo  ooooooooooooooooooooooo   ....oooooooooooooooooooooooooooo",
"oooooooooo    ooooooooo  ....  ooooooooooooXX  ooooooooooooooo    ooXX oooooooooooooooooooooo   ....XX    XXooooooooooXooooooooo",
"oooooooooo    ooooooooo  ....  ooooooooooooXX  ooooooooooooooo    ooXX oooooooooooooooooooooo   ....XX    XXooooooooooXooooooooo",
"oooooooooo    ooooooooo  ....  ooooooooooooXX  ooooooooooooooo    ooXX oooooooooooooooooooooo   ....XX    XXooooooooooXooooooooo",
"oooo      XXoooooooooo   ....    ooooooooooXXXX oo    ooooooooXX  oooooooooooooXXXXoooooooo     ....XXXXXXoooooooooooooooooooooo",
"oooo      XXoooooooooo   ....    ooooooooooXXXX oo    ooooooooXX  oooooooooooooXXXXoooooooo     ....XXXXXXoooooooooooooooooooooo",
"  XXXXXXXXoo  oo         ....      ooooooooooXXX  XX  ooooooooooXX  XX oooooooooo               ....XXXXXXooooooooooooo    ooooo",
"  XXXXXXXXoo  oo         ....      ooooooooooXXX  XX  ooooooooooXX  XX oooooooooo               ....XXXXXXooooooooooooo    ooooo",
"  XX      ..        .. ........      oo    oooooXXXX  ooooooooooooooooo    oooooooo          .......    XXXXXXXX       oo       ",
"  XX      ..        .. ........      oo    oooooXXXX  ooooooooooooooooo    oooooooo          .......    XXXXXXXX       oo       ",
".................................                       ..........             oooo        ...........  ooXXXXXX                ",
".................................                       ..........             oooo        ...........  ooXXXXXX                ",
"................................................................................................................................",
"................................................................................................................................",
"................................................................................................................................"
};
