/* XPM */
static char *_dbb80cba1e04db0c65c1a34d325c845KO6HHvqs5U79pwnX[] = {
/* columns rows colors chars-per-pixel */
"32 32 4 1 ",
"  c #332B18",
". c #573020",
"X c #614A0C",
"o c #546D8E",
/* pixels */
"oooooooooooooooooooooooooooooooo",
"oooooooooooooooooooooooooooooooo",
"oooooooooooooooooooooooooooooooo",
"oooooooooooooooooooooooooooooooo",
"oooooooooooooooooooooooooooooooo",
"oooooooooooooooooooooooooooooooo",
"oooooooooooooooooooooooooooooooo",
"oooooooooooooooooooooooooooooooo",
"oooooooooooooooooooooooooooooooo",
"oooooooooXoXoooooooooooooooooooo",
"ooooooooooXooooooooooooooooooooo",
"oooooooooX Xoooooooooooooooooooo",
"oooooooooo oXoXooooooooooooooooo",
"oooooooooo ooXoooooooooooooooooo",
"oooooXoXoX oX XoooooXoXooooooooo",
"ooooooXooo oo oooooooXoooooooooo",
"oooooXo Xo oo ooooooX Xooooooooo",
"oooooooo o oo XoXoooo oXoXoooooo",
"oooooooo o oo oXooooo ooXooooooo",
"oooooXoXo  oXo oXoooo o oXoooooo",
"ooooooXooo oo oooXoXo  ooooooooo",
"oooooXo oo o oooooXoo oooooooooo",
"oooooooo o o XoXoXo o oXoXoooooo",
"ooooooXoo  o oXooooo  ooXooooooo",
"oooooooooo o  oXooooo o oXoooooo",
"oooooooXoo o oooooooo  ooooooooo",
"oooooooo.......oooooo ooooXooooo",
"oooooooo.......oooo......ooooooo",
"ooooooooo.....ooooo......ooooooo",
"ooooooooo.....oooooo....oooooooo",
"oooXooooo.....oooXoo....ooooXooo",
"oXoXXoXooo...ooooXXoo..ooooXoXoo"
};
