/* XPM */
static char *c9946380643045f297e2e89e43f3e3c5WYAMzad6O3NKRqQ1[] = {
/* columns rows colors chars-per-pixel */
"128 128 4 1 ",
"  c #1C1F2E",
". c #17040C",
"X c #7B809B",
"o c #292F49",
/* pixels */
"                                   .............                        .....                             .............. XXXXXXX",
"................................................................................................................................",
"................................................................................................................................",
"................................................................................................................................",
"................................................................................................................................",
"............XXXXXXXXXXXXXXX..XXXXXXXX  ..    XX   ........  XXXXXXXXXX  .......XXXXXXXXXX  ....   XXXXXXXXXXXXXXXXXXXX..........",
"............XXXXXXXXXXXXXXX..XXXXXXXX  ..    XX   ........  XXXXXXXXXX  .......XXXXXXXXXX  ....   XXXXXXXXXXXXXXXXXXXX..........",
"..........ooooXXXXXXXXXXXXXXXXXooooooooooooooXXXXXXX......XXoo  oo       ......      XXoo    ...      XXXXXX  ooXXXXXX..........",
"..........ooooXXXXXXXXXXXXXXXXXooooooooooooooXXXXXXX......XXoo  oo       ......      XXoo    ...      XXXXXX  ooXXXXXX..........",
"..........ooooXXXXXXXXXXXXXXXXXooooooooooooooXXXXXXX......XXoo  oo       ......      XXoo    ...      XXXXXX  ooXXXXXX..........",
"oo....XXXXooooooooooXXXXoooooooXXooooooooooooXXXXXXXXX....XX  oooooo    .....      XXXXXX    ..   XXXXXXooooooooXXXXXXXX   .....",
"oo....XXXXooooooooooXXXXoooooooXXooooooooooooXXXXXXXXX....XX  oooooo    .....      XXXXXX    ..   XXXXXXooooooooXXXXXXXX   .....",
"  ....XXXXXXoooooooooooooooooooooooooooooooXXXXXXX    ....  oooooooo  oo ....    XX    oooooo   XXXXooooooooooooooooooXX   .....",
"  ....XXXXXXoooooooooooooooooooooooooooooooXXXXXXX    ....  oooooooo  oo ....    XX    oooooo   XXXXooooooooooooooooooXX   .....",
"  ....XX  oooooooooooooooooXXooooooooooooooXXXXX    oo....oooooooooooooo ....  ooXXXXXXoooooo  XXX    ooooooooooooooooooXoo  ...",
"  ....XX  oooooooooooooooooXXooooooooooooooXXXXX    oo....oooooooooooooo ....  ooXXXXXXoooooo  XXX    ooooooooooooooooooXoo  ...",
"......    oooooooooooooooooooooooooooooooooooXXooooooo....ooooooooooXXXX ....    ooXXooooooooXX XXoo  ooooooooooooooooooooo  ...",
"......    oooooooooooooooooooooooooooooooooooXXooooooo....ooooooooooXXXX ....    ooXXooooooooXX XXoo  ooooooooooooooooooooo  ...",
"  ....    oooooooooooooooooooooooooooooooooooooooo    ....ooooooooooooXX ....  oooooooooooooooooooooooooooooooooooooooooooooo...",
"  ....    oooooooooooooooooooooooooooooooooooooooo    ....ooooooooooooXX ....  oooooooooooooooooooooooooooooooooooooooooooooo...",
"  ....    oooooooooooooooooooooooooooooooooooooo      ....oooooooooooooo ....  oo  oooooooo    oooooooooooooooooooooooooo    ...",
"  ....    oooooooooooooooooooooooooooooooooooooo      ....oooooooooooooo ....  oo  oooooooo    oooooooooooooooooooooooooo    ...",
"  ....    oooooooooooooooooooooooooooooooooooooo      ....oooooooooooooo ....  oo  oooooooo    oooooooooooooooooooooooooo    ...",
"  ....    oooooooooooooooooooooooooooooooooooooo      ....oooooooooooooo ....  oo  oooooooooo  oooooooooooooooooooooooooooo  ...",
"  ....    oooooooooooooooooooooooooooooooooooooo      ....oooooooooooooo ....  oo  oooooooooo  oooooooooooooooooooooooooooo  ...",
"........  oooooooooooooooooooXXooooooooooooooooooooo  ....ooXXooXXoooo  .....  oo    oooooooo  oooooooooooooooooooooooooooo  ...",
"........  oooooooooooooooooooXXooooooooooooooooooooo  ....ooXXooXXoooo  .....  oo    oooooooo  oooooooooooooooooooooooooooo  ...",
"......  oooooooooooooooooooooXXXXooooooooooooooooooo......    XXXXoooooo.....        XXoooooooooooooooooooooooooooooooooooo  ...",
"......  oooooooooooooooooooooXXXXooooooooooooooooooo......    XXXXoooooo.....        XXoooooooooooooooooooooooooooooooooooo  ...",
"......  oooooooooooooooooooooooooooooooooooooooooooo......  oooooooooooo.....        XXXXoooooooooooooooooooooooooooooooooooo...",
"......  oooooooooooooooooooooooooooooooooooooooooooo......  oooooooooooo.....        XXXXoooooooooooooooooooooooooooooooooooo...",
"  ....  oooooooooooooooooooooooooooooooooooooooooooo......  oooooooooooo ....    oo    XXoooooooooooooooooXXooooooooooXX   XX...",
"  ....  oooooooooooooooooooooooooooooooooooooooooooo......  oooooooooooo ....    oo    XXoooooooooooooooooXXooooooooooXX   XX...",
"  ....    oo  ooooooooooooooo    ooooooooooooooooooo  ....oooooooooooooo ....        oooooooooooooooooooooooooooooooooooXXXXX...",
"  ....    oo  ooooooooooooooo    ooooooooooooooooooo  ....oooooooooooooo ....        oooooooooooooooooooooooooooooooooooXXXXX...",
"  ....    oo  ooooooooooooooo    ooooooooooooooooooo  ....oooooooooooooo ....        oooooooooooooooooooooooooooooooooooXXXXX...",
"  ....        ooooooooooooo        ooooooooooooooo    ....  oooooo       ......      ooooooooooooooooo    ooooooooooooooXXXXX...",
"  ....        ooooooooooooo        ooooooooooooooo    ....  oooooo       ......      ooooooooooooooooo    ooooooooooooooXXXXX...",
"........          ooooooo          oooooooooo         ......             ..............                 oo        XXXXXXX    ...",
"........          ooooooo          oooooooooo         ......             ..............                 oo        XXXXXXX    ...",
"..........                                        ............oo        .................                         XXXXXXo  .....",
"..........                                        ............oo        .................                         XXXXXXo  .....",
"................................................................................................................................",
"................................................................................................................................",
"................................................................................................................................",
"................................................................................................................................",
"XXXX................  XXXXXXXXXXXXXXXXXXXXXXXXXX  ........ooXXXXXXXXXXXXXXX    ..........  ..   XXXXXXoooooooooo  XX  .......XXX",
"XXXX................  XXXXXXXXXXXXXXXXXXXXXXXXXX  ........ooXXXXXXXXXXXXXXX    ..........  ..   XXXXXXoooooooooo  XX  .......XXX",
"XXXX................  XXXXXXXXXXXXXXXXXXXXXXXXXX  ........ooXXXXXXXXXXXXXXX    ..........  ..   XXXXXXoooooooooo  XX  .......XXX",
"XXXX..............  XXXXXXX  oooooo                           oo        XXXoooo  ......    XX     XXXXoooooooooooo      .....   ",
"XXXX..............  XXXXXXX  oooooo                           oo        XXXoooo  ......    XX     XXXXoooooooooooo      .....   ",
"XXXXXX    ......  ooXX  X    oooo    oooo  oooo oooooooooooo          oo XXXXooXXoo....  ooXX   XXXXoooooooooooooooo    ...     ",
"XXXXXX    ......  ooXX  X    oooo    oooo  oooo oooooooooooo          oo XXXXooXXoo....  ooXX   XXXXoooooooooooooooo    ...     ",
"ooooXX    ......  ooXXooo  XXoooooooooooo  ooooooooooooooooo  oooooooo   ooooooXX  ....  oo  XXXXXoooooooooooooooooo    ...    X",
"ooooXX    ......  ooXXooo  XXoooooooooooo  ooooooooooooooooo  oooooooo   ooooooXX  ....  oo  XXXXXoooooooooooooooooo    ...    X",
"ooooooXXoo  ....  ooooooo  XXXXooooooooooooooooooooooooooooooooooo      ooooooooo  ....    ooooXoooooooooooooooooooooo  ...  ooX",
"ooooooXXoo  ....  ooooooo  XXXXooooooooooooooooooooooooooooooooooo      ooooooooo  ....    ooooXoooooooooooooooooooooo  ...  ooX",
"oooooooooo  ....  ooooooooooooooooooooooooooooooooooXXoooooooooooo  XXXXooooooooo......      ooooooooooooooooooooooooooo...    o",
"oooooooooo  ....  ooooooooooooooooooooooooooooooooooXXoooooooooooo  XXXXooooooooo......      ooooooooooooooooooooooooooo...    o",
"oooooooooooo......    ooooooooooooooooooooooooooooooooooooooooooooooXXooooooooooo  ......ooXXooooooooooooooooooooooooooo...  ooo",
"oooooooooooo......    ooooooooooooooooooooooooooooooooooooooooooooooXXooooooooooo  ......ooXXooooooooooooooooooooooooooo...  ooo",
"oooooooo    ........  ooooooooooooooooooooooooooooooooooooooooooooooooooooooooooo  ....  ooooooooooooooooooooooooooooooo...  oo ",
"oooooooo    ........  ooooooooooooooooooooooooooooooooooooooooooooooooooooooooooo  ....  ooooooooooooooooooooooooooooooo...  oo ",
"oooooooo    ........  ooooooooooooooooooooooooooooooooooooooooooooooooooooooooooo  ....  ooooooooooooooooooooooooooooooo...  oo ",
"oooooooooo  ......       oooooooooooo  oooooooooooooooooooooooooooooooooooooooo    ....  oooooooXXooooooooooooooXXoooooo...  oo ",
"oooooooooo  ......       oooooooooooo  oooooooooooooooooooooooooooooooooooooooo    ....  oooooooXXooooooooooooooXXoooooo...  oo ",
"oooooooooo  ....           ooooooooooooXXoooooooooooooooooooooooooooooooooooo    ......  oooooooooooooooooooooXXoooooooo...  oo ",
"oooooooooo  ....           ooooooooooooXXoooooooooooooooooooooooooooooooooooo    ......  oooooooooooooooooooooXXoooooooo...  oo ",
"oooooooooo  ......  ooooooooooooooooooooooooooooooooooooooooooooooooooooooooooo........  ooooooooooooooooooooooooooooooo...     ",
"oooooooooo  ......  ooooooooooooooooooooooooooooooooooooooooooooooooooooooooooo........  ooooooooooooooooooooooooooooooo...     ",
"oooooooooooo....    ooooooooooooooooooooooo  ooooooooooooooooooooooo  ooooooooo  ......  ooooooooooooooooooooooooooo    ...     ",
"oooooooooooo....    ooooooooooooooooooooooo  ooooooooooooooooooooooo  ooooooooo  ......  ooooooooooooooooooooooooooo    ...     ",
"ooooXX    XX....    ooooooooooooooooooooo  XXoo   oooooooooooooooo  XXooooooooooo  ....  ooooooooo    oooooooooooo      ...    o",
"ooooXX    XX....    ooooooooooooooooooooo  XXoo   oooooooooooooooo  XXooooooooooo  ....  ooooooooo    oooooooooooo      ...    o",
"ooooooXXXXXX....      oooooooXXXXoooooooooooooo XXoooooooo    oo  XXXXooooooooo    ....    oooooooooXX      oooo        ...     ",
"ooooooXXXXXX....      oooooooXXXXoooooooooooooo XXoooooooo    oo  XXXXooooooooo    ....    oooooooooXX      oooo        ...     ",
"ooooooXXXXXX....      oooooooXXXXoooooooooooooo XXoooooooo    oo  XXXXooooooooo    ....    oooooooooXX      oooo        ...     ",
"ooooooXXXXXX....               oooooooooo  XX  Xoooooooooo  XX  XXXXooooooooo      ....         oo  ooXXXXXXXX        .......   ",
"ooooooXXXXXX....               oooooooooo  XX  Xoooooooooo  XX  XXXXooooooooo      ....         oo  ooXXXXXXXX        .......   ",
"XXXXXXXX    ........         oooooooo    ooooooooooooooooo  XXXXoooooo   oo      ........  ..       ..      XX    ..............",
"XXXXXXXX    ........         oooooooo    ooooooooooooooooo  XXXXoooooo   oo      ........  ..       ..      XX    ..............",
"XXXXXXoo  ............       oooo              .........                       .................................................",
"XXXXXXoo  ............       oooo              .........                       .................................................",
"................................................................................................................................",
"................................................................................................................................",
"................................................................................................................................",
"................................................................................................................................",
"....    XX    ..  XXXXXXX..XXXXXXXXXXXXXXXX.............    XXXXXXXXXXXXXXXoo........  XXXXXXXXXXXXXXXXXXXXXXXXXXX  ............",
"....    XX    ..  XXXXXXX..XXXXXXXXXXXXXXXX.............    XXXXXXXXXXXXXXXoo........  XXXXXXXXXXXXXXXXXXXXXXXXXXX  ............",
"....    XX    ..  XXXXXXX..XXXXXXXXXXXXXXXX.............    XXXXXXXXXXXXXXXoo........  XXXXXXXXXXXXXXXXXXXXXXXXXXX  ............",
"..XXXXXXXXooooooooooooooXXXXXXXXXXXXXXXXXoooo.........  ooooXXXX        o                           oooooo  XXXXXXXX  .......  .",
"..XXXXXXXXooooooooooooooXXXXXXXXXXXXXXXXXoooo.........  ooooXXXX        o                           oooooo  XXXXXXXX  .......  .",
"XXXXXXXXXXooooooooooooXXoooooooXXXXooooooooooXXX....ooXXooXXXX  oo         oooooooooooo  oooo  ooo    oooo    XX  XXoo  ...    X",
"XXXXXXXXXXooooooooooooXXoooooooXXXXooooooooooXXX....ooXXooXXXX  oo         oooooooooooo  oooo  ooo    oooo    XX  XXoo  ...    X",
"    XXXXXXXXoooooooooooooooooooooooooooooooXXXXX....  XXoooooo    ooooooo  oooooooooooooooooo  oooooooooooXX  ooooXXoo  ...  ooX",
"    XXXXXXXXoooooooooooooooooooooooooooooooXXXXX....  XXoooooo    ooooooo  oooooooooooooooooo  oooooooooooXX  ooooXXoo  ...  ooX",
"oo    XXXXXXoooooooooooooXXoooooooooooooooooo  X....  oooooooooo      ooooooooooooooooooooooooooooooooooXXXX  oooooooo  ...  oo ",
"oo    XXXXXXoooooooooooooXXoooooooooooooooooo  X....  oooooooooo      ooooooooooooooooooooooooooooooooooXXXX  oooooooo  ...  oo ",
"ooooooooXXooooooooooooooooooooooooooooooooooo   ......ooooooooooXXXX  oooooooooooXXooooooooooooooooooooooooooooooooooo  ...    o",
"ooooooooXXooooooooooooooooooooooooooooooooooo   ......ooooooooooXXXX  oooooooooooXXooooooooooooooooooooooooooooooooooo  ...    o",
"    ooooooooooooooooooooooooooooooooooooooooo   ....  ooooooooooooXXoooooooooooooooooooooooooooooooooooooooooooooo    .....     ",
"    ooooooooooooooooooooooooooooooooooooooooo   ....  ooooooooooooXXoooooooooooooooooooooooooooooooooooooooooooooo    .....     ",
"    ooooooooooooooooooooooooooooooooooooooooo   ....  ooooooooooooXXoooooooooooooooooooooooooooooooooooooooooooooo    .....     ",
"      ooooooooooooooooooooooooooooooooooooooo   ....  oooooooooooooooooooooooooooooooooooooooooooooooooooooooooooo  .........ooX",
"      ooooooooooooooooooooooooooooooooooooooo   ....  oooooooooooooooooooooooooooooooooooooooooooooooooooooooooooo  .........ooX",
"      ooooooooooooooooooooooooooooooooooooooo   ....    oooooooooooooooooooooooooooooooooooooooo  oooooooooooo        .....  ooo",
"      ooooooooooooooooooooooooooooooooooooooo   ....    oooooooooooooooooooooooooooooooooooooooo  oooooooooooo        .....  ooo",
"  ooooooooooooooooooooooXoooooooooooooooooooo  .......    oooooooooooooooooooooooooooooooooooooXoooooooooooo            ...  ooo",
"  ooooooooooooooooooooooXoooooooooooooooooooo  .......    oooooooooooooooooooooooooooooooooooooXoooooooooooo            ...  ooo",
"..ooooooooooooooooooooXXXoooooooooooooooooooooo ........oooooooooooooooooooooooooooooooooooooooooooooooooooooooooooo  .....  ooo",
"..ooooooooooooooooooooXXXoooooooooooooooooooooo ........oooooooooooooooooooooooooooooooooooooooooooooooooooooooooooo  .....  ooo",
"..ooooooooooooooooooooooooooooooooooooooooooooo ......  oooooooooo  ooooooooooooooooooooooo  ooooooooooooooooooooooo    ...  ooo",
"..ooooooooooooooooooooooooooooooooooooooooooooo ......  oooooooooo  ooooooooooooooooooooooo  ooooooooooooooooooooooo    ...  ooo",
"..ooooooooooooooooooooooooooooooooooooooooooooo ....  ooooooooooooXX  ooooooooooooooo    ooXX  ooooooooooooooooooooo    ...  ooo",
"..ooooooooooooooooooooooooooooooooooooooooooooo ....  ooooooooooooXX  ooooooooooooooo    ooXX  ooooooooooooooooooooo    ...  ooo",
"  oooooooooooooooooooo   oooooooooooooooo  oo   ....    ooooooooooXXXX  o    ooooooooXX  oooooooooooooXXXXoooooooo      ...  ooo",
"  oooooooooooooooooooo   oooooooooooooooo  oo   ....    ooooooooooXXXX  o    ooooooooXX  oooooooooooooXXXXoooooooo      ...  ooo",
"  oooooooooooooooooooo   oooooooooooooooo  oo   ....    ooooooooooXXXX  o    ooooooooXX  oooooooooooooXXXXoooooooo      ...  ooo",
"    oooooooooooooooo       oooooooooooooo       ....      ooooooooooXXXX XX  ooooooooooXX  XX  ooooooooo                ...    o",
"    oooooooooooooooo       oooooooooooooo       ....      ooooooooooXXXX XX  ooooooooooXX  XX  ooooooooo                ...    o",
"          oooooooooo         oooooooo          .......      oo    ooooooXXX  oooooooooooooooooo   oooooooo          .......     ",
"          oooooooooo         oooooooo          .......      oo    ooooooXXX  oooooooooooooooooo   oooooooo          .......     ",
"....                                         ...........                       ..........             oooo        ...........  .",
"....                                         ...........                       ..........             oooo        ...........  .",
"................................................................................................................................",
"................................................................................................................................",
"................................................................................................................................",
"................................................................................................................................"
};
