/* XPM */
static char *_d1dc77842c448beaac101af5b3f24cbgS0I1loHotIVGfc6[] = {
/* columns rows colors chars-per-pixel */
"32 32 6 1 ",
"  c black",
". c #464646",
"X c #AB8620",
"o c #546D8E",
"O c #99D9EA",
"+ c white",
/* pixels */
"oooooooooooooooooooooooooooooooo",
"oooooooooooooooooooooooooooooooo",
"oooooooooooooooooooooooooooooooo",
"oooooooooooooooooooooooooooooooo",
"oooooooooooooooooooooooooooooooo",
"oooooooooooooooooooooooooooooooo",
"oooooooooooooooooooooooooooooooo",
"ooooooooooo.oooooooo.ooooooooooo",
"oooooooooXXXXXXXXXXXXXXooooooooo",
"ooooooooXOOOOOOOOOOOOOOXoooooooo",
"ooooooooXOOOOO+++OOOOOOXoooooooo",
"ooooooooXOOOO+++++OOOOOXoooooooo",
"ooooooooXOOOO+ + +O+OOOXoooooooo",
"ooooooooXOOOO++++++OOOOXoooooooo",
"ooooooooXOOOOO+++OOOOOOXoooooooo",
"ooooooooXOOOOOOOOOOOOOOXoooooooo",
"oooooooooXXXXXXXXXXXXXXooooooooo",
"oooooooooooooooooooooooooooooooo",
"oooooooooooooooooooooooooooooooo",
"oooooooooooooooooooooooooooooooo",
"oooooooooooooooooooooooooooooooo",
"oooooooooooooooooooooooooooooooo",
"oooooooooooooooooooooooooooooooo",
"oooooooooooooooooooooooooooooooo",
"oooooooooooooooooooooooooooooooo",
"oooooooooooooooooooooooooooooooo",
"oooooooooooooooooooooooooooooooo",
"oooooooooooooooooooooooooooooooo",
"oooooooooooooooooooooooooooooooo",
"oooooooooooooooooooooooooooooooo",
"oooooooooooooooooooooooooooooooo",
"oooooooooooooooooooooooooooooooo"
};
