/* XPM */
static char *_9e8c67d60ab4ad3846acf035d7882c2ioU53mtXBINePQ5l[] = {
/* columns rows colors chars-per-pixel */
"32 32 2 1 ",
"  c #464646",
". c #546D8E",
/* pixels */
"..  ............................",
"...  ...........................",
".... ...........................",
"... .  ...... ..................",
".. ... ..... ...................",
"... ... . . ....................",
".... ... . .....................",
".... ...... ....................",
"... .....  .....................",
"......... ......... ............",
".......... ....... .............",
".................. .............",
"................. ..............",
"................. ..............",
"................. ..............",
".................. .............",
"................... ............",
".................... ...........",
".....................  .........",
"...................... .........",
".......... ........... .........",
"........... ......... .... .....",
"........... ........ ..... .....",
"....... ... ......... ... ......",
".......... . ......... . .......",
".............  .......  ........",
"............... ...... .........",
"................ .... ..........",
".................    . .........",
"................ ...... ........",
"........................ .......",
"........................  ......"
};
