/* XPM */
static char *c417b8d1bb5842d398f831c319fac702ukXmLKaHWFbBHbBN[] = {
/* columns rows colors chars-per-pixel */
"32 32 4 1 ",
"  c #546D8E",
". c #89989C",
"X c gray62",
"o c #9DBAC2",
/* pixels */
"                                ",
"                                ",
"                                ",
"                                ",
"                                ",
"      XXXXXXXXXXXXXXXXXXXXX     ",
"      Xooooooo.oXoooooooooX     ",
"      Xooooooo.oX.ooooooooX     ",
"      Xoooooo.ooXo.oooooooX     ",
"      X..ooo.oooXoo..o.oooX     ",
"      Xoo.oo.oooXoo...ooooX     ",
"      Xooo..oooXXooo.o..ooX     ",
"      Xooo..ooooXoo.oooo.oX     ",
"      Xooo.o..ooXo.oooo..oX     ",
"      Xoo.oooo.oXoo.oo.oooX     ",
"      Xo.oooooo.Xo.oooo.ooX     ",
"      X.ooooooooX.oooooo.oX     ",
"      XXXXXXXXXXXXXXXXXXXXX     ",
"                                ",
"                                ",
"                                ",
"                                ",
"                                ",
"                                ",
"                                ",
"                                ",
"                                ",
"                                ",
"                                ",
"                                ",
"                                ",
"                                "
};
