/* XPM */
static char *_b0ba4011fef478be93cdd63a5fc4df7Fgyb0hJ14pLeEunE[] = {
/* columns rows colors chars-per-pixel */
"128 128 4 1 ",
"  c #17040C",
". c #3B2910",
"X c #A4865B",
"o c #6D512B",
/* pixels */
"     ..XXXXXXXXXXXXXXXXXXXXXXXXXXXXX........  XXXXXXXXXXX......XXXX      ooXXXXXXXXXXXXXXXXXXX....   ..XXXXXXXXXXXXXXXXXXXXXoooo",
"..  .........XXXXXXXXXXXXXXX..................XXXXXXXXX......XXXX      oooo.XXXXXXXXXXXXXX..XXXX..oo.....XXXXXXXXXXXXXXXXooXXXXX",
"..  .........XXXXXXXXXXXXXXX..................XXXXXXXXX......XXXX      oooo.XXXXXXXXXXXXXX..XXXX..oo.....XXXXXXXXXXXXXXXXooXXXXX",
"...................ooooooooooooooooo....XXXXXXXXXXXXXXX............    oooo.XXXX........oo..oooooooooXXooooXXooXXXXXX....ooooooo",
"...................ooooooooooooooooo....XXXXXXXXXXXXXXX............    oooo.XXXX........oo..oooooooooXXooooXXooXXXXXX....ooooooo",
".................ooooooooooooooooooooo....oo......ooooo....oooo..      XXooXXXoooo..XXXXXXoooo..ooooooooooooooo....ooooooooooooo",
".................ooooooooooooooooooooo....oo......ooooo....oooo..      XXooXXXoooo..XXXXXXoooo..ooooooooooooooo....ooooooooooooo",
"....o..........oooooooooooooooooooooooooooooooooooooo..oooooo......    XXXXXoooooo..........oo..ooooooo..........ooooooooooooo..",
"....o..........oooooooooooooooooooooooooooooooooooooo..oooooo......    XXXXXoooooo..........oo..ooooooo..........ooooooooooooo..",
"oooo.XX..oooooooooooooooooooooooooooooooooooooooooooXXXoo..oo..XX..    ..XXooooooooooooooooooooooooo.....ooooooooooooooooooooo..",
"oooo.XX..oooooooooooooooooooooooooooooooooooooooooooXXXoo..oo..XX..    ..XXooooooooooooooooooooooooo.....ooooooooooooooooooooo..",
"oooo.XX..oooooooooooooooooooooooooooooooooooooooooooXXXoo..oo..XX..    ..XXooooooooooooooooooooooooo.....ooooooooooooooooooooo..",
"ooooXXXXX..oooooooooooooo..XXX..oooooooooooooooo..XXXXXoooooo......    XXXXoooooooooooooooooooooooooooooooooooooooooooooooooooXX",
"ooooXXXXX..oooooooooooooo..XXX..oooooooooooooooo..XXXXXoooooo......    XXXXoooooooooooooooooooooooooooooooooooooooooooooooooooXX",
"oooooXXXX..oooooooooooooooo.XXXX..oooooooooooooooo..X..oooooo......    XXoooooooooooooooooooooooooooooooooooooooooooo..XXXXo..oo",
"oooooXXXX..oooooooooooooooo.XXXX..oooooooooooooooo..X..oooooo......    XXoooooooooooooooooooooooooooooooooooooooooooo..XXXXo..oo",
"ooooooooooooooooooooooooooo.ooXXXX..ooooooooooooooooooooooooo......    oooooooooooooooooooooooooooooooooooooo..oo........XXo....",
"ooooooooooooooooooooooooooo.ooXXXX..ooooooooooooooooooooooooo......    oooooooooooooooooooooooooooooooooooooo..oo........XXo....",
"....ooooooooooooooooooooooo.oo..XX..ooooooooooooooooooooooooo....        oo.ooooooooooooooooooooooooooooo..............ooooooo..",
"....ooooooooooooooooooooooo.oo..XX..ooooooooooooooooooooooooo....        oo.ooooooooooooooooooooooooooooo..............ooooooo..",
"  ...oooooooooooooooooooooooooXXXXXXooooooooooooooooooooooooo....          o....oooooooooooooooooooooooXX............ooooooooooo",
"  ...oooooooooooooooooooooooooXXXXXXooooooooooooooooooooooooo....          o....oooooooooooooooooooooooXX............ooooooooooo",
"    .oooooooooooooooooooooooooooooXXooooooooooooooooooooooooo....          o........oooooooooooooooooXX..XXXXXXoo..ooooooooooooo",
"    .oooooooooooooooooooooooooooooXXooooooooooooooooooooooooo....          o........oooooooooooooooooXX..XXXXXXoo..ooooooooooooo",
"  ...oooooooooooooooooooooooooooXX..oooooooo....ooooooooooooo....        ooo..........ooooooooooooooXXX......ooooooooooooooooooo",
"  ...oooooooooooooooooooooooooooXX..oooooooo....ooooooooooooo....        ooo..........ooooooooooooooXXX......ooooooooooooooooooo",
"  ...oooooooooooooooooooooooooooXX..oooooooo....ooooooooooooo....        ooo..........ooooooooooooooXXX......ooooooooooooooooooo",
"    ooooooooooooooooooooooooooooooooooooooooXXXX..ooooooooooo......    ..ooooo........ooooooooooooXX.......ooooooooooooooooooooo",
"    ooooooooooooooooooooooooooooooooooooooooXXXX..ooooooooooo......    ..ooooo........ooooooooooooXX.......ooooooooooooooooooooo",
"  ..ooooooooooooooooooooooooooooooooooooooooXXooooooooooooo........    ....ooooooooo..ooooooXX.........ooooooooooooooooooooooooo",
"  ..ooooooooooooooooooooooooooooooooooooooooXXooooooooooooo........    ....ooooooooo..ooooooXX.........ooooooooooooooooooooooooo",
"ooooooooooooooooooooooooooooooooooooooooooooooooooooooooooo........    ....ooooooooooooooooo....oooooooooooooooooooooooooooooooo",
"ooooooooooooooooooooooooooooooooooooooooooooooooooooooooooo........    ....ooooooooooooooooo....oooooooooooooooooooooooooooooooo",
"oooo.ooooooooooooooooooooooooooooooooooooooooooooooooooXX..........    .......oooooooooooo....oooooooooooooooooooooooooooooooooo",
"oooo.ooooooooooooooooooooooooooooooooooooooooooooooooooXX..........    .......oooooooooooo....oooooooooooooooooooooooooooooooooo",
".....ooooooooooooooooooooooooooooooooooooooooooooooooooXX..........    .........oooooooooooooooooooooooooooooooooooooooooooooooo",
".....ooooooooooooooooooooooooooooooooooooooooooooooooooXX..........    .........oooooooooooooooooooooooooooooooooooooooooooooooo",
".......oooooo......oooooooooooooooooooooooooooooooooXXX............    .........oooooooooooooooooooooooooooooooooooooooooooooooo",
".......oooooo......oooooooooooooooooooooooooooooooooXXX............    .........oooooooooooooooooooooooooooooooooooooooooooooooo",
".......oooooo......oooooooooooooooooooooooooooooooooXXX............    .........oooooooooooooooooooooooooooooooooooooooooooooooo",
"..  ...ooooXXXXoo........oooooooooooooooooooooooooXX...........  ..      ...............oooooooooooooooooooooooooooooooooooooooo",
"..  ...ooooXXXXoo........oooooooooooooooooooooooooXX...........  ..      ...............oooooooooooooooooooooooooooooooooooooooo",
"     ..oooooooo............ooooooooooooooooooooooo...........              ......................................oooo......oXXXX",
"     ..oooooooo............ooooooooooooooooooooooo...........              ......................................oooo......oXXXX",
"     .............................      .......................             ...................................XX..XXXXXXXXXXXXX",
"     .............................      .......................             ...................................XX..XXXXXXXXXXXXX",
"                                                                                                                                ",
"                                                                                                                                ",
"         ..                                                                                                                     ",
"         ..                                                                                                                     ",
"    ...XX....  ..XXXXXXXX  XXXXXXXXXXXXXXX             ....XXXXXXXXXXXXXXXXo        ..XXXXXXXXXXXXXXXXXXXXXXXXXXX..           ..",
"    ...XX....  ..XXXXXXXX  XXXXXXXXXXXXXXX             ....XXXXXXXXXXXXXXXXo        ..XXXXXXXXXXXXXXXXXXXXXXXXXXX..           ..",
"    ...XX....  ..XXXXXXXX  XXXXXXXXXXXXXXX             ....XXXXXXXXXXXXXXXXo        ..XXXXXXXXXXXXXXXXXXXXXXXXXXX..           ..",
"  XXXXXXXooooooooooooooXXXXXXXXXXXXXXXXXoooo         ..ooooXXXX........oo...........................ooooo..XXXXXXXX..       XXXX",
"  XXXXXXXooooooooooooooXXXXXXXXXXXXXXXXXoooo         ..ooooXXXX........oo...........................ooooo..XXXXXXXX..       XXXX",
"XXXXXXXXXooooooooooooXXoooooooXXXXooooooooooXXXX    oXXooXXXX..oo..........ooooooooooo..oooo..oooo...oooo....XX..XXoo..    XXXXX",
"XXXXXXXXXooooooooooooXXoooooooXXXXooooooooooXXXX    oXXooXXXX..oo..........ooooooooooo..oooo..oooo...oooo....XX..XXoo..    XXXXX",
"....XXXXXXXoooooooooooooooooooooooooooooooXXXXXX    .XXoooooo....oooooooo..ooooooooooooooooo..oooooooooooXX..ooooXXoo..    ...XX",
"....XXXXXXXoooooooooooooooooooooooooooooooXXXXXX    .XXoooooo....oooooooo..ooooooooooooooooo..oooooooooooXX..ooooXXoo..    ...XX",
"oo...XXXXXXooooooooooooooXXooooooooooooooooo..XX    .oooooooooo......ooooooooooooooooooooooooooooooooooXXXX..oooooooo..    o....",
"oo...XXXXXXooooooooooooooXXooooooooooooooooo..XX    .oooooooooo......ooooooooooooooooooooooooooooooooooXXXX..oooooooo..    o....",
"oooooooXXooooooooooooooooooooooooooooooooooo....     ooooooooooXXXX..oooooooooooXXooooooooooooooooooooooooooooooooooo..    ooooo",
"oooooooXXooooooooooooooooooooooooooooooooooo....     ooooooooooXXXX..oooooooooooXXooooooooooooooooooooooooooooooooooo..    ooooo",
"....oooooooooooooooooooooooooooooooooooooooo....    .ooooooooooooXXoooooooooooooooooooooooooooooooooooooooooooooo....      ...oo",
"....oooooooooooooooooooooooooooooooooooooooo....    .ooooooooooooXXoooooooooooooooooooooooooooooooooooooooooooooo....      ...oo",
"....oooooooooooooooooooooooooooooooooooooooo....    .ooooooooooooXXoooooooooooooooooooooooooooooooooooooooooooooo....      ...oo",
".....ooooooooooooooooooooooooooooooooooooooo....    .oooooooooooooooooooooooooooooooooooooooooooooooooooooooooooo..        .....",
".....ooooooooooooooooooooooooooooooooooooooo....    .oooooooooooooooooooooooooooooooooooooooooooooooooooooooooooo..        .....",
".....ooooooooooooooooooooooooooooooooooooooo....    ...ooooooooooooooooooooooooooooooooooooooooo..ooooooooooo........      .....",
".....ooooooooooooooooooooooooooooooooooooooo....    ...ooooooooooooooooooooooooooooooooooooooooo..ooooooooooo........      .....",
"..oooooooooooooooooooooXXooooooooooooooooooo..       ....oooooooooooooooooooooooooooooooooooooXXooooooooooo............    .oooo",
"..oooooooooooooooooooooXXooooooooooooooooooo..       ....oooooooooooooooooooooooooooooooooooooXXooooooooooo............    .oooo",
"  oooooooooooooooooooXXXXooooooooooooooooooooo..       oooooooooooooooooooooooooooooooooooooooooooooooooooooooooooo..       oooo",
"  oooooooooooooooooooXXXXooooooooooooooooooooo..       oooooooooooooooooooooooooooooooooooooooooooooooooooooooooooo..       oooo",
"  oooooooooooooooooooooooooooooooooooooooooooo..     ..oooooooooo..ooooooooooooooooooooooo..ooooooooooooooooooooooo....     oooo",
"  oooooooooooooooooooooooooooooooooooooooooooo..     ..oooooooooo..ooooooooooooooooooooooo..ooooooooooooooooooooooo....     oooo",
"  oooooooooooooooooooooooooooooooooooooooooooo..    .ooooooooooooXX..ooooooooooooooo....ooXX..ooooooooooooooooooooo....     oooo",
"  oooooooooooooooooooooooooooooooooooooooooooo..    .ooooooooooooXX..ooooooooooooooo....ooXX..ooooooooooooooooooooo....     oooo",
"..ooooooooooooooooooo....ooooooooooooooo..oo....    ...ooooooooooXXXX..oo...ooooooooXX..oooooooooooooXXXXoooooooo......    .oooo",
"..ooooooooooooooooooo....ooooooooooooooo..oo....    ...ooooooooooXXXX..oo...ooooooooXX..oooooooooooooXXXXoooooooo......    .oooo",
"..ooooooooooooooooooo....ooooooooooooooo..oo....    ...ooooooooooXXXX..oo...ooooooooXX..oooooooooooooXXXXoooooooo......    .oooo",
"....ooooooooooooooo........ooooooooooooo........    .....ooooooooooXXXX..XX.ooooooooooXX..XX..ooooooooo................    ...oo",
"....ooooooooooooooo........ooooooooooooo........    .....ooooooooooXXXX..XX.ooooooooooXX..XX..ooooooooo................    ...oo",
".........oooooooooo.........oooooooo..........       ......oo....ooooooXXXX.oooooooooooooooooo....ooooooo..........        .....",
".........oooooooooo.........oooooooo..........       ......oo....ooooooXXXX.oooooooooooooooooo....ooooooo..........        .....",
"    ........................................           .......................          .............oooo........             ..",
"    ........................................           .......................          .............oooo........             ..",
"                                                                                                                                ",
"                                                                                                                                ",
"                                                                                                                                ",
"                                                                                                                                ",
"XXXXXXXXXXXXXXX  XXXXXXXX.. ....XX....          ..oooXXXX........oo...........................oooooo.XXXXXXXX..        XXXXXXXoo",
"XXXXXXXXXXXXXXX  XXXXXXXX.. ....XX....          ..oooXXXX........oo...........................oooooo.XXXXXXXX..        XXXXXXXoo",
"XXXXXXXXXXXXXXX  XXXXXXXX.. ....XX....          ..oooXXXX........oo...........................oooooo.XXXXXXXX..        XXXXXXXoo",
"ooXXXXXXXXXXXXXXXXXoooooooooooooXXXXXXXX      ooXXooXXX..oo..........ooooooooooo..oooo..oooo....oooo...XX..XXoo..    XXXXXXXXXoo",
"ooXXXXXXXXXXXXXXXXXoooooooooooooXXXXXXXX      ooXXooXXX..oo..........ooooooooooo..oooo..oooo....oooo...XX..XXoo..    XXXXXXXXXoo",
"oooooooXXXXooooooooXXoooooooooooXXXXXXXXXX    ..XXooooo....oooooooo..ooooooooooooooooo..ooooooooooooX..ooooXXoo..    ....XXXXXXX",
"oooooooXXXXooooooooXXoooooooooooXXXXXXXXXX    ..XXooooo....oooooooo..ooooooooooooooooo..ooooooooooooX..ooooXXoo..    ....XXXXXXX",
"ooooooooooooooooooooooooooooooXXXXXXXX....    ..ooooooooo......oooooooooooooooooooooooooooooooooooXXX..oooooooo..    oo....XXXXX",
"ooooooooooooooooooooooooooooooXXXXXXXX....    ..ooooooooo......oooooooooooooooooooooooooooooooooooXXX..oooooooo..    oo....XXXXX",
"oooooooooooooooXXoooooooooooooXXXXXX....oo      oooooooooXXXX..ooooooooooooXooooooooooooooooooooooooooooooooooo..    oooooooXXoo",
"oooooooooooooooXXoooooooooooooXXXXXX....oo      oooooooooXXXX..ooooooooooooXooooooooooooooooooooooooooooooooooo..    oooooooXXoo",
"ooooooooooooooooooooooooooooooooXXoooooooo    ..oooooooooooXXoooooooooooooooooooooooooooooooooooooooooooooo....      ....ooooooo",
"ooooooooooooooooooooooooooooooooXXoooooooo    ..oooooooooooXXoooooooooooooooooooooooooooooooooooooooooooooo....      ....ooooooo",
"oooooooooooooooooooooooooooooooooooooo....    ..ooooooooooooooooooooooooooooooooooooooooooooooooooooooooooo..        ......ooooo",
"oooooooooooooooooooooooooooooooooooooo....    ..ooooooooooooooooooooooooooooooooooooooooooooooooooooooooooo..        ......ooooo",
"oooooooooooooooooooooooooooooooooooooo....    ..ooooooooooooooooooooooooooooooooooooooooooooooooooooooooooo..        ......ooooo",
"oooooooooooooooooooooooooooooooooooo......    ....oooooooooooooooooooooooooooooooooooooooo..ooooooooooo........      ......ooooo",
"oooooooooooooooooooooooooooooooooooo......    ....oooooooooooooooooooooooooooooooooooooooo..ooooooooooo........      ......ooooo",
"oooooooooooooooooooooooooooooooooooo......      ....ooooooooooooooooooooooooooooooooooooXXooooooooooo............    ..ooooooooo",
"oooooooooooooooooooooooooooooooooooo......      ....ooooooooooooooooooooooooooooooooooooXXooooooooooo............    ..ooooooooo",
"oooooooooooooooooXXooooooooooooooooooooo..        ooooooooooooooooooooooooooooooooooooooooooooooooooooooooooo..        ooooooooo",
"oooooooooooooooooXXooooooooooooooooooooo..        ooooooooooooooooooooooooooooooooooooooooooooooooooooooooooo..        ooooooooo",
"oooooooooooooooooXXXXooooooooooooooooooo        ..ooooooooo..ooooooooooooooooooooooo..ooooooooooooooooooooooo....      ooooooooo",
"oooooooooooooooooXXXXooooooooooooooooooo        ..ooooooooo..ooooooooooooooooooooooo..ooooooooooooooooooooooo....      ooooooooo",
"oooooooooooooooooooooooooooooooooooooooo      ..oooooooooooXX..ooooooooooooooo....ooXX..ooooooooooooooooooooo....      ooooooooo",
"oooooooooooooooooooooooooooooooooooooooo      ..oooooooooooXX..ooooooooooooooo....ooXX..ooooooooooooooooooooo....      ooooooooo",
"oooooooooooooooooooooooooooooooooooooooo      ....oooooooooXXXX..oo....oooooooXX..ooooooooooooooXXXXooooooo......    ..ooooooooo",
"oooooooooooooooooooooooooooooooooooooooo      ....oooooooooXXXX..oo....oooooooXX..ooooooooooooooXXXXooooooo......    ..ooooooooo",
"oooooooooooooooooooooooooooooooooooooooo      ....oooooooooXXXX..oo....oooooooXX..ooooooooooooooXXXXooooooo......    ..ooooooooo",
"..ooooooooooooooo....ooooooooooooooooooo..    ......oooooooooXXXX..XX..oooooooooXX..XX..oooooooooo...............    ....ooooooo",
"..ooooooooooooooo....ooooooooooooooooooo..    ......oooooooooXXXX..XX..oooooooooXX..XX..oooooooooo...............    ....ooooooo",
"..ooooooooooooo........ooooooooooooooo....      .....oo....ooooooXXXX..ooooooooooooooooo....oooooooo.........        .........oo",
"..ooooooooooooo........ooooooooooooooo....      .....oo....ooooooXXXX..ooooooooooooooooo....oooooooo.........        .........oo",
".....oooooooo..........ooooooooo..........        .......................         ..............oooo.......              .......",
".....oooooooo..........ooooooooo..........        .......................         ..............oooo.......              .......",
"......................................                                                                                          ",
"......................................                                                                                          "
};
